<svg id="Layer_1" data-name="Layer 1" xmlns="http://www.w3.org/2000/svg" viewBox="0 0 154.59 90.68"><defs><style>.cls-1,.cls-6{fill:#f5ff15;}.cls-2{fill:#5f4000;}.cls-3{fill:#a7ad31;}.cls-3,.cls-4{stroke:#000;}.cls-3,.cls-4,.cls-5,.cls-6,.cls-7,.cls-8{stroke-miterlimit:10;}.cls-4{fill:#663636;}.cls-5{fill:#4a1d00;}.cls-5,.cls-6,.cls-7,.cls-8{stroke:#f5ff15;}.cls-7{fill:#f09fff;}.cls-8{fill:#ff74f5;}.cls-9{font-size:3.06px;font-family:MyriadPro-Regular, Myriad Pro;}.cls-10{letter-spacing:-0.05em;}.cls-11{letter-spacing:0em;}.cls-12{font-size:11px;font-family:Castellar;}.cls-13{letter-spacing:-0.06em;}.cls-14{letter-spacing:-0.06em;}</style></defs><polygon class="cls-1" points="76.29 40.5 79.9 40.5 79.9 11.85 76.29 9.22 76.29 40.5"/><polygon class="cls-2" points="76.29 34.42 66.84 36.51 66.84 11.3 76.29 9.22 76.29 34.42"/><path class="cls-3" d="M670.07,285.89v20.18l-1.57.86-5.91-1.18V284.13Z" transform="translate(-595.34 -265.3)"/><polygon class="cls-4" points="63.85 43.04 67.25 41.95 67.25 18.83 63.85 20.82 63.85 43.04"/><polygon class="cls-5" points="83.71 40.5 79.9 40.5 79.9 17.83 83.71 16.65 83.71 40.5"/><polygon class="cls-6" points="86.43 44.49 83.71 44.49 83.71 16.65 86.43 18.56 86.43 44.49"/><path class="cls-7" d="M717.13,332.41l-46.24-26.79-.82.45-1.57.86-46.3,25.48.16-.12,40.23-30.19,7.48-5.62.82-.61Z" transform="translate(-595.34 -265.3)"/><path class="cls-7" d="M407.8,129.07" transform="translate(-595.34 -265.3)"/><path class="cls-8" d="M705.57,303.24c-.25,20.19-16.2,36.48-35.84,36.48s-35.59-16.29-35.83-36.48c.26,18.71,16.21,33.8,35.83,33.8S705.3,322,705.57,303.24Z" transform="translate(-595.34 -265.3)"/><path class="cls-8" d="M633.9,302.28c.24-20.19,16.2-36.48,35.83-36.48s35.59,16.29,35.84,36.48c-.27-18.71-16.21-33.79-35.84-33.79S634.16,283.57,633.9,302.28Z" transform="translate(-595.34 -265.3)"/><rect class="cls-3" x="70.05" y="44.94" width="4.69" height="4.69"/><rect class="cls-3" x="75.73" y="44.94" width="4.69" height="4.69"/><rect class="cls-3" x="70.07" y="50.76" width="4.69" height="4.69"/><rect class="cls-3" x="75.75" y="50.76" width="4.69" height="4.69"/><text class="cls-9" transform="translate(68.32 62.54)">S H A K<tspan class="cls-10" x="8.98" y="0"> </tspan><tspan class="cls-11" x="9.49" y="0">Y A</tspan></text><text class="cls-12" transform="translate(0 87.62)"><tspan xml:space="preserve">S H A K Y A  REAL ES</tspan><tspan class="cls-13" x="124.85" y="0">T</tspan><tspan class="cls-14" x="132.13" y="0">A</tspan><tspan x="140.37" y="0">TE</tspan></text></svg>